<?xml version="1.0" encoding="UTF-8" standalone="no"?>
<!-- Created with Inkscape (http://www.inkscape.org/) -->

<svg
   sodipodi:docname="herobg.svg"
   id="svg5"
   version="1.1"
   viewBox="0 0 508 285.75"
   height="1080"
   width="1920"
   inkscape:version="1.1.1 (3bf5ae0d25, 2021-09-20)"
   xmlns:inkscape="http://www.inkscape.org/namespaces/inkscape"
   xmlns:sodipodi="http://sodipodi.sourceforge.net/DTD/sodipodi-0.dtd"
   xmlns:xlink="http://www.w3.org/1999/xlink"
   xmlns="http://www.w3.org/2000/svg"
   xmlns:svg="http://www.w3.org/2000/svg">
  <sodipodi:namedview
     id="namedview7"
     pagecolor="#505050"
     bordercolor="#eeeeee"
     borderopacity="1"
     inkscape:pageshadow="0"
     inkscape:pageopacity="0"
     inkscape:pagecheckerboard="0"
     inkscape:document-units="mm"
     showgrid="false"
     units="px"
     inkscape:snap-global="false"
     inkscape:zoom="0.66772388"
     inkscape:cx="1549.2931"
     inkscape:cy="980.19559"
     inkscape:window-width="1366"
     inkscape:window-height="705"
     inkscape:window-x="-8"
     inkscape:window-y="-8"
     inkscape:window-maximized="1"
     inkscape:current-layer="layer1" />
  <defs
     id="defs2">
    <pattern
       inkscape:collect="always"
       xlink:href="#Wavywhite"
       id="pattern4976"
       patternTransform="matrix(0.75609756,0,0,0.75609756,-122.38096,210.20984)" />
    <pattern
       inkscape:collect="always"
       patternUnits="userSpaceOnUse"
       width="30.066020"
       height="5.1805778"
       id="Wavywhite"
       inkscape:stockid="Wavy white"
       inkscape:isstock="true">
      <path
         style="fill:white;stroke:none;"
         d="M 7.597,0.061 C 5.079,-0.187 2.656,0.302 -0.01,1.788 L -0.01,3.061 C 2.773,1.431 5.173,1.052 7.472,1.280 C 9.770,1.508 11.969,2.361 14.253,3.218 C 18.820,4.931 23.804,6.676 30.066,3.061 L 30.062,1.788 C 23.622,5.497 19.246,3.770 14.691,2.061 C 12.413,1.207 10.115,0.311 7.597,0.061 z "
         id="path4371" />
    </pattern>
    <radialGradient
       fx="0"
       fy="0"
       cx="0"
       cy="0"
       r="1"
       gradientUnits="userSpaceOnUse"
       gradientTransform="matrix(3.7885645,8.3747015,-8.3747015,3.7885645,265.20072,32.044207)"
       spreadMethod="pad"
       id="radialGradient2543">
      <stop
         style="stop-opacity:1;stop-color:#ddff5f"
         offset="0"
         id="stop2529" />
      <stop
         style="stop-opacity:1;stop-color:#fad99f"
         offset="0.113433"
         id="stop2531" />
      <stop
         style="stop-opacity:1;stop-color:#e5b946"
         offset="0.5047395"
         id="stop2533" />
      <stop
         style="stop-opacity:1;stop-color:#e5b946"
         offset="0.610944"
         id="stop2535" />
      <stop
         style="stop-opacity:1;stop-color:#f7b12d"
         offset="0.862048"
         id="stop2537" />
      <stop
         style="stop-opacity:1;stop-color:#f7b12d"
         offset="0.94408039"
         id="stop2539" />
      <stop
         style="stop-opacity:1;stop-color:#f2bc3d"
         offset="1"
         id="stop2541" />
    </radialGradient>
    <linearGradient
       inkscape:collect="always"
       id="linearGradient1705">
      <stop
         style="stop-color:#ffff00;stop-opacity:1;"
         offset="0"
         id="stop1701" />
      <stop
         style="stop-color:#ffff00;stop-opacity:0;"
         offset="1"
         id="stop1703" />
    </linearGradient>
    <radialGradient
       fx="0"
       fy="0"
       cx="0"
       cy="0"
       r="1"
       gradientUnits="userSpaceOnUse"
       gradientTransform="matrix(3.7885645,8.3747015,-8.3747015,3.7885645,265.20072,32.044207)"
       spreadMethod="pad"
       id="radialGradient622">
      <stop
         style="stop-opacity:1;stop-color:#fad99f"
         offset="0"
         id="stop608" />
      <stop
         style="stop-opacity:1;stop-color:#fad99f"
         offset="0.113433"
         id="stop610" />
      <stop
         style="stop-opacity:1;stop-color:#e5b946"
         offset="0.5047395"
         id="stop612" />
      <stop
         style="stop-opacity:1;stop-color:#e5b946"
         offset="0.610944"
         id="stop614" />
      <stop
         style="stop-opacity:1;stop-color:#f7b12d"
         offset="0.862048"
         id="stop616" />
      <stop
         style="stop-opacity:1;stop-color:#f7b12d"
         offset="0.94408039"
         id="stop618" />
      <stop
         style="stop-opacity:1;stop-color:#f2bc3d"
         offset="1"
         id="stop620" />
    </radialGradient>
    <clipPath
       clipPathUnits="userSpaceOnUse"
       id="clipPath414">
      <path
         d="m 4778.54,4889.1 c 0,-93.49 163.44,-177.47 422.81,-235.01 214.16,-47.52 493.73,-77.02 800.68,-78.99 10.95,-0.07 21.93,-0.11 32.94,-0.11 293,0 562.57,25.08 776.26,67.12 129.1,25.39 237.81,56.97 318.96,92.96 102.64,45.52 161.21,98.06 161.21,154.03 -14.75,29.47 -29.49,58.96 -44.22,88.43 -73.55,147.08 -150.28,287.76 -223.82,434.84 -77.05,154.11 -154.11,308.23 -231.17,462.34 -169.71,339.42 -336.22,685.25 -505.94,1024.67 -26.85,53.69 -53.69,107.38 -80.53,161.07 -21.23,42.45 -42.45,84.89 -63.67,127.34 -35.69,71.39 -71.39,142.78 -107.08,214.16 -1.34,-2.65 -2.67,-5.31 -3.99,-7.97 -37.28,-74.57 -74.56,-149.13 -111.84,-223.69 -45.16,-90.3 -90.31,-180.6 -135.46,-270.91 -169.72,-339.42 -339.43,-678.85 -509.14,-1018.28 -77.05,-154.11 -154.11,-308.22 -231.17,-462.33 -73.54,-147.08 -147.08,-294.16 -220.62,-441.24 -14.73,-29.47 -29.47,-58.96 -44.21,-88.43 z"
         id="path412" />
    </clipPath>
    <clipPath
       clipPathUnits="userSpaceOnUse"
       id="clipPath420">
      <path
         d="m 4778.54,4889.1 c 0,-93.49 163.44,-177.47 422.81,-235.01 214.16,-47.52 493.73,-77.02 800.68,-78.99 10.95,-0.07 21.93,-0.11 32.94,-0.11 293,0 562.57,25.08 776.26,67.12 129.1,25.39 237.81,56.97 318.96,92.96 102.64,45.52 161.21,98.06 161.21,154.03 -14.75,29.47 -29.49,58.96 -44.22,88.43 -73.55,147.08 -150.28,287.76 -223.82,434.84 -77.05,154.11 -154.11,308.23 -231.17,462.34 -169.71,339.42 -336.22,685.25 -505.94,1024.67 -26.85,53.69 -53.69,107.38 -80.53,161.07 -21.23,42.45 -42.45,84.89 -63.67,127.34 -35.69,71.39 -71.39,142.78 -107.08,214.16 -1.34,-2.65 -2.67,-5.31 -3.99,-7.97 -37.28,-74.57 -74.56,-149.13 -111.84,-223.69 -45.16,-90.3 -90.31,-180.6 -135.46,-270.91 -169.72,-339.42 -339.43,-678.85 -509.14,-1018.28 -77.05,-154.11 -154.11,-308.22 -231.17,-462.33 -73.54,-147.08 -147.08,-294.16 -220.62,-441.24 -14.73,-29.47 -29.47,-58.96 -44.21,-88.43"
         id="path418" />
    </clipPath>
    <linearGradient
       inkscape:collect="always"
       xlink:href="#linearGradient1705"
       id="linearGradient1707"
       x1="1815.0931"
       y1="555.96497"
       x2="1897.1437"
       y2="711.96857"
       gradientUnits="userSpaceOnUse" />
    <filter
       inkscape:collect="always"
       style="color-interpolation-filters:sRGB"
       id="filter2183"
       x="-0.38423059"
       y="-1.45067"
       width="1.7684612"
       height="3.9013401">
      <feGaussianBlur
         inkscape:collect="always"
         stdDeviation="214.97494"
         id="feGaussianBlur2185" />
    </filter>
    <linearGradient
       inkscape:collect="always"
       xlink:href="#radialGradient2543"
       id="linearGradient2433"
       x1="251.04904"
       y1="-56.59811"
       x2="263.37735"
       y2="-56.59811"
       gradientUnits="userSpaceOnUse"
       gradientTransform="translate(-7.6877603,-106.48012)" />
    <linearGradient
       inkscape:collect="always"
       xlink:href="#linearGradient1705"
       id="linearGradient4980"
       gradientUnits="userSpaceOnUse"
       gradientTransform="matrix(2.1570838,3.3086926e-8,-3.308693e-8,2.1570838,-116.3815,-139.17615)"
       x1="251.04904"
       y1="-56.59811"
       x2="275.80698"
       y2="-56.825562" />
  </defs>
  <g
     inkscape:label="Layer 1"
     inkscape:groupmode="layer"
     id="layer1">
    <path
       id="path5822"
       style="fill:#0000ff;fill-opacity:1;stroke:none;stroke-width:0.305916;stroke-dasharray:0.917746, 0.305916"
       d="m 440.06296,213.4667 a 109.09327,108.0737 0 0 0 -106.99471,87.13967 h 1.34092 a 107.77091,106.7637 0 0 1 105.65379,-85.82969 107.77091,106.7637 0 0 1 68.05735,23.98412 v -1.64802 A 109.09327,108.0737 0 0 0 440.06296,213.4667 Z" />
    <path
       id="path5608"
       style="fill:#0000ff;fill-opacity:1;stroke:none;stroke-width:1.32469;stroke-dasharray:3.97406, 1.32469"
       d="M 1626.6758 700.88867 A 470.18733 470.18733 0 0 0 1165.5332 1080 L 1171.3125 1080 A 464.48803 464.48803 0 0 1 1626.6758 706.58789 A 464.48803 464.48803 0 0 1 1920 810.93359 L 1920 803.76367 A 470.18733 470.18733 0 0 0 1626.6758 700.88867 z "
       transform="scale(0.26458333)" />
    <rect
       style="fill:#000000;stroke:none;stroke-width:0.518381;stroke-dasharray:1.55515, 0.518381;fill-opacity:0"
       id="rect846"
       width="508"
       height="285.75"
       x="0"
       y="0" />
    <path
       id="path968"
       style="fill:#0000ff;fill-opacity:1;stroke:none;stroke-width:1.32469;stroke-dasharray:3.97406, 1.32469"
       d="M 399.33008 0 A 470.18733 470.18733 0 0 0 389.70508 93.191406 A 470.18733 470.18733 0 0 0 859.89258 563.37695 A 470.18733 470.18733 0 0 0 1330.0801 93.191406 A 470.18733 470.18733 0 0 0 1320.7207 0 L 1314.916 0 A 464.48803 464.48803 0 0 1 1324.3809 93.191406 A 464.48803 464.48803 0 0 1 859.89258 557.67773 A 464.48803 464.48803 0 0 1 395.4043 93.191406 A 464.48803 464.48803 0 0 1 405.125 0 L 399.33008 0 z "
       transform="scale(0.26458333)" />
    <path
       id="path1089"
       style="fill:#0000ff;fill-opacity:1;stroke:none;stroke-width:0.716047;stroke-dasharray:2.14814, 0.716047"
       d="M 623.45312 0 A 254.15504 254.15504 0 0 0 605.73828 93.189453 A 254.15504 254.15504 0 0 0 859.89258 347.3457 A 254.15504 254.15504 0 0 0 1114.0469 93.189453 A 254.15504 254.15504 0 0 0 1096.3242 0 L 1093.0156 0 A 251.07434 251.07434 0 0 1 1110.9668 93.189453 A 251.07434 251.07434 0 0 1 859.89258 344.26367 A 251.07434 251.07434 0 0 1 608.81836 93.189453 A 251.07434 251.07434 0 0 1 626.8125 0 L 623.45312 0 z "
       transform="scale(0.26458333)" />
    <path
       d="m 273.63259,33.558077 c 0,4.062016 -3.29287,7.354884 -7.35488,7.354884 -4.06196,0 -7.35484,-3.292868 -7.35484,-7.354884 0,-4.061958 3.29288,-7.354826 7.35484,-7.354826 4.06201,0 7.35488,3.292868 7.35488,7.354826"
       style="fill:url(#radialGradient622);fill-opacity:1;fill-rule:nonzero;stroke:none;stroke-width:0.00547669"
       id="path624" />
    <g
       id="g865"
       transform="matrix(0.18028198,-0.10408585,0.10408585,0.18028198,203.99901,130.14949)">
      <path
         d="m 467.72079,202.59687 0.15734,60.27561 -51.46569,14.52386 -0.15734,-60.27561 51.46569,-14.52386"
         style="fill:#81b2d1;fill-opacity:1;fill-rule:nonzero;stroke:none;stroke-width:0.0352778"
         id="path346" />
      <path
         d="m 416.41244,277.39634 -39.33543,-18.76072 -0.15734,-60.27667 39.33543,18.76178 0.15734,60.27561"
         style="fill:#8fc1db;fill-opacity:1;fill-rule:nonzero;stroke:none;stroke-width:0.0352778"
         id="path348" />
      <path
         d="m 416.2551,217.12073 -39.33543,-18.76178 51.46569,-14.52421 39.33543,18.76213 -51.46569,14.52386"
         style="fill:#9fd1e6;fill-opacity:1;fill-rule:nonzero;stroke:none;stroke-width:0.0352778"
         id="path350" />
    </g>
    <g
       id="g410"
       clip-path="url(#clipPath414)"
       style="stroke:none"
       transform="matrix(0.00527971,0.0033141,0.0033141,-0.00527971,428.79377,170.35622)">
      <g
         id="g416"
         clip-path="url(#clipPath420)"
         style="stroke:none">
        <path
           id="path424"
           style="fill:url(#linearGradient1707);fill-opacity:1;fill-rule:nonzero;stroke:none;stroke-width:0.428684"
           d="m 1857.0762,544.26172 c -0.1085,0.0651 -0.2163,0.12967 -0.3242,0.19726 -1.5276,0.92756 -3.056,1.85668 -4.5821,2.78516 -1.526,0.92854 -3.051,1.85704 -4.5781,2.78711 -0.9245,0.56157 -1.8495,1.12339 -2.7734,1.6875 -0.9246,0.56153 -1.8495,1.12339 -2.7735,1.6875 -1.8491,1.12314 -3.6964,2.24932 -5.5449,3.375 -3.475,2.11339 -6.9488,4.22841 -10.4238,6.3418 -3.476,2.11494 -6.9489,4.22841 -10.4239,6.34179 1.1064,-0.40594 2.6143,-0.59031 4.4454,-0.63086 -0.9153,0.0215 -1.7515,0.0782 -2.4942,0.17969 -0.7452,0.10202 -1.398,0.24818 -1.9512,0.45117 -6.9484,4.22775 -13.8982,8.45624 -20.8476,12.68555 -6.309,3.83871 -12.6197,7.6773 -18.9297,11.51758 -3.0122,1.83182 -6.0225,3.66329 -9.0332,5.49609 -3.0122,1.83182 -6.0229,3.66428 -9.0352,5.4961 -0.2581,0.41653 -0.4265,0.86971 -0.5078,1.35937 -0.081,0.48967 -0.074,1.01593 0.016,1.57813 -0.09,-0.5622 -0.097,-1.08846 -0.016,-1.57813 0.081,-0.48966 0.2497,-0.94284 0.5078,-1.35937 -0.6015,0.36694 -1.2055,0.73362 -1.8086,1.09961 -0.2625,0.42088 -0.4328,0.88699 -0.5136,1.39453 0.081,-0.50773 0.2502,-0.97479 0.5136,-1.39453 -0.604,0.36752 -1.2074,0.73563 -1.8105,1.10156 -0.5329,0.84892 -0.6813,1.90981 -0.4785,3.14844 0.2054,1.23807 0.7616,2.6517 1.6387,4.21093 1.751,3.11659 4.7816,6.81254 8.8339,10.8125 3.3461,3.30103 7.3898,6.81442 11.9825,10.38282 l 0,0.002 c 4.5936,3.56898 9.7391,7.19839 15.2891,10.73242 l 1.416,-2.25781 c 0,0 0,0 0,0 l -1.416,2.25781 c 0.3958,0.24846 0.7906,0.50155 1.1895,0.75195 0.4672,-0.75476 0.9351,-1.51086 1.4023,-2.26562 -0.4672,0.75476 -0.9332,1.51086 -1.4004,2.26562 5.319,3.33872 10.568,6.31822 15.5762,8.87891 5.0097,2.56171 9.7793,4.70606 14.1387,6.37695 2.6321,1.0103 5.1146,1.84731 7.4101,2.5 2.2971,0.65369 4.4053,1.12252 6.2891,1.39453 4.7633,0.68648 8.0872,0.11309 9.3633,-1.91992 0.1358,-1.40594 0.2727,-2.81179 0.4101,-4.21679 0.3403,-3.50904 0.615,-6.97849 0.8907,-10.44727 0.1386,-1.73389 0.2761,-3.46884 0.4218,-5.20703 0.1457,-1.73819 0.2993,-3.48149 0.4707,-5.23633 -0.2266,0.22893 -0.5458,0.3779 -0.9511,0.45313 0.4053,-0.0752 0.7245,-0.2242 0.9511,-0.45313 0.7155,-7.35201 1.4291,-14.70264 2.1446,-22.05469 -0.1325,-0.0567 -0.3304,-0.16123 -0.586,-0.31054 -0.2556,-0.14932 -0.5709,-0.34441 -0.9414,-0.58204 -0.3698,-0.23871 -0.797,-0.51897 -1.2734,-0.84179 -0.4753,-0.32457 -1.0014,-0.69006 -1.5742,-1.09571 1.1433,0.81159 2.1071,1.46155 2.8476,1.9375 1.4334,-8.33584 2.3458,-17.1586 3.3047,-25.94726 -0.9581,8.78915 -1.8713,17.61142 -3.3047,25.94726 0.7421,0.47696 1.2625,0.77887 1.5274,0.89258 0.7868,-8.09539 1.6408,-16.23153 2.4922,-24.36718 0.8514,-8.13564 1.7033,-16.27375 2.4902,-24.36914 0.1244,-1.27993 0.2506,-2.56186 0.375,-3.8418 0.1244,-1.27996 0.2487,-2.56185 0.373,-3.8418 0.097,-1.01344 0.195,-2.02566 0.295,-3.03711 0.097,-1.01344 0.1968,-2.02565 0.2968,-3.03711 0.1656,-1.70384 0.3296,-3.40514 0.4942,-5.10742 0.1672,-1.70287 0.3314,-3.40511 0.4961,-5.10742 z m -9.711,37.5625 c -2.6077,9.17669 -5.1568,18.31994 -8.3632,27.14648 3.2064,-8.82654 5.7555,-17.96979 8.3632,-27.14648 z m -71.1718,13.73633 c 0.3838,0.75186 1.0371,1.62112 1.9316,2.59961 -0.8945,-0.97849 -1.5478,-1.84775 -1.9316,-2.59961 z m 47.1132,3.26172 c 0.8627,1.14104 2.0002,2.1218 3.2696,3.01367 -1.2074,-0.84844 -2.2962,-1.77641 -3.1407,-2.84766 -0.044,-0.0543 -0.085,-0.11025 -0.1289,-0.16601 z m 3.4043,3.11914 c 0.8683,0.60006 1.8484,1.11448 2.8086,1.64453 -0.9607,-0.52986 -1.9402,-1.0443 -2.8086,-1.64453 z m -40.5254,3.3125 c 2.9028,2.26964 6.2132,4.54606 9.9415,6.87109 -3.7283,-2.32503 -7.0387,-4.60145 -9.9415,-6.87109 z m -30.7558,2.69336 c 0.01,0.54924 0.1034,1.14009 0.2832,1.76953 -0.09,-0.31473 -0.1597,-0.62102 -0.207,-0.91602 -0.047,-0.295 -0.072,-0.57873 -0.076,-0.85351 z m 16.2012,0.67187 c 1.3685,1.4267 3.0052,2.97879 4.8925,4.65039 -1.8873,-1.6716 -3.524,-3.22369 -4.8925,-4.65039 z m -15.5664,2.11133 c 0.2614,0.65646 0.598,1.34689 1.0156,2.07422 -0.4168,-0.72708 -0.7541,-1.41808 -1.0156,-2.07422 z m 11.4121,10.83203 c -0.5682,0.57124 -1.1272,1.14271 -1.6778,1.7207 0.2748,-0.2882 0.5536,-0.57646 0.834,-0.86328 0.278,-0.28622 0.5601,-0.57258 0.8438,-0.85742 z m 19.9961,0.19531 c -2.8467,3.18529 -5.6388,6.39844 -8.2207,9.67188 1.2985,-1.64775 2.6496,-3.28103 4.0351,-4.90039 1.3691,-1.60066 2.7717,-3.18812 4.1856,-4.77149 z m 48.5566,14.43164 c 1.8643,0.94312 3.5707,1.7469 4.9082,2.21094 -0.6688,-0.232 -1.4311,-0.5488 -2.2578,-0.92578 -0.8267,-0.37698 -1.719,-0.81412 -2.6504,-1.28516 z m -32.6113,11.04883 c 1.9984,1.18546 4.0045,2.35966 6.0429,3.47461 2.379,1.30226 4.7879,2.54709 7.2325,3.71094 -2.445,-1.16402 -4.8534,-2.40884 -7.2325,-3.71094 -0.01,-0.004 -0.014,-0.006 -0.021,-0.01 -2.0308,-1.11189 -4.0304,-2.28371 -6.0215,-3.46484 z m 20.7226,10.41211 c 2.6039,1.01004 5.0028,1.8578 7.1895,2.52734 -2.1867,-0.66954 -4.5856,-1.5173 -7.1895,-2.52734 z m 20.4395,3.47461 c -1.5651,0.93801 -4.0468,1.07276 -7.3516,0.50977 2.2037,0.37452 4.04,0.44076 5.4844,0.16406 0.7217,-0.13759 1.3456,-0.36121 1.8672,-0.67383 z"
           transform="matrix(19.757365,12.40177,12.40177,-19.757365,-37405.833,-4875.8674)" />
      </g>
    </g>
    <path
       id="path2023"
       style="mix-blend-mode:normal;fill:#5f5fff;fill-opacity:1;stroke:none;stroke-width:1.96913;stroke-dasharray:5.9074, 1.96913;filter:url(#filter2183)"
       d="M 1124.6367,724.34375 A 671.39383,351.58162 0 0 0 453.24414,1075.9238 671.39383,351.58162 0 0 0 453.50977,1080 H 1795.7656 a 671.39383,351.58162 0 0 0 0.2656,-4.0762 671.39383,351.58162 0 0 0 -671.3945,-351.58005 z"
       transform="matrix(0.26458333,0,0,0.26458333,16.81132,33.622641)" />
    <circle
       style="fill:url(#linearGradient2433);fill-opacity:1;stroke:none;stroke-width:0.520999;stroke-dasharray:1.563, 0.520999"
       id="path2345"
       cx="249.52544"
       cy="-163.07822"
       r="6.1641512"
       transform="rotate(56.888656)" />
    <circle
       style="opacity:0.7;fill:url(#pattern4976);fill-opacity:1;stroke:none;stroke-width:0.393926;stroke-dasharray:1.18178, 0.393926"
       id="path4802"
       cx="391.14334"
       cy="201.73584"
       r="34.743397" />
    <circle
       style="fill:url(#linearGradient4980);fill-opacity:1;stroke:none;stroke-width:1.12384;stroke-dasharray:3.37152, 1.12384"
       id="circle4978"
       cx="438.44891"
       cy="-261.263"
       r="13.296591"
       transform="rotate(56.888656)" />
  </g>
</svg>
