<?xml version="1.0" encoding="UTF-8" standalone="no"?>
<!-- Created with Inkscape (http://www.inkscape.org/) -->

<svg
   width="24"
   height="24"
   viewBox="0 0 6.3499999 6.3500002"
   version="1.1"
   id="svg5"
   xmlns="http://www.w3.org/2000/svg"
   xmlns:svg="http://www.w3.org/2000/svg">
  <defs
     id="defs2" />
  <path
     id="path846"
     style="fill:#ffffff;stroke:none;stroke-width:0.0819969;stroke-miterlimit:4;stroke-dasharray:none;stroke-opacity:0.6"
     d="M 3.175 0 A 3.175 3.1749942 0 0 0 0 3.175 A 3.175 3.1749942 0 0 0 0.96686606 5.4539307 L 4.4545085 3.4406169 C 4.5162087 3.4049949 4.5830207 3.3871231 4.6493286 3.3853231 C 4.7952065 3.3813826 4.9378613 3.4557709 5.0162313 3.5915121 C 5.1302243 3.7889535 5.0632943 4.0397588 4.8658529 4.1537517 L 1.697054 5.9825806 A 3.175 3.1749942 0 0 0 3.175 6.35 A 3.175 3.1749942 0 0 0 6.35 3.175 A 3.175 3.1749942 0 0 0 5.3841675 0.89503581 L 1.8954916 2.9093832 C 1.6980502 3.0233754 1.4477614 2.9559292 1.3337687 2.758488 C 1.219776 2.5610469 1.286706 2.3102412 1.4841471 2.1962484 L 4.6544963 0.36586914 A 3.175 3.1749942 0 0 0 3.175 0 z M 1.697054 5.9825806 A 3.175 3.1749941 0 0 1 1.1069092 5.5810547 A 3.175 3.1749942 0 0 0 1.697054 5.9825806 z M 0.96686606 5.4539307 A 3.175 3.1749942 0 0 0 1.0939901 5.5702027 A 3.175 3.1749941 0 0 1 0.96686606 5.4539307 z M 4.2374675 2.1435384 C 4.3833451 2.1395981 4.5265169 2.2134698 4.6048869 2.3492106 C 4.7188797 2.5466519 4.6519498 2.7974574 4.4545085 2.9114502 L 2.3073527 4.1511678 C 2.1099114 4.2651606 1.8591059 4.1982307 1.7451131 4.0007894 C 1.6311203 3.8033481 1.6980502 3.5525426 1.8954916 3.4385498 L 4.0426473 2.1988322 C 4.1043478 2.1632094 4.1711594 2.1453295 4.2374675 2.1435384 z " />
</svg>
