<svg xmlns="http://www.w3.org/2000/svg" version="1.1" xmlns:xlink="http://www.w3.org/1999/xlink" xmlns:svgjs="http://svgjs.com/svgjs" width="1440" height="560" preserveAspectRatio="none" viewBox="0 0 1440 560"><g mask="url(&quot;#SvgjsMask1048&quot;)" fill="none"><path d="M1172.49 499.39a5.6 5.6 0 1 0-11.2 0.33 5.6 5.6 0 1 0 11.2-0.33zM1156.49 499.86a5.6 5.6 0 1 0-11.19 0.32 5.6 5.6 0 1 0 11.19-0.32zM1140.5 500.32a5.6 5.6 0 1 0-11.19 0.32 5.6 5.6 0 1 0 11.19-0.32zM1124.51 500.78a5.6 5.6 0 1 0-11.2 0.33 5.6 5.6 0 1 0 11.2-0.33zM1204.01 482.47a5.6 5.6 0 1 0-11.19 0.33 5.6 5.6 0 1 0 11.19-0.33zM1188.02 482.94a5.6 5.6 0 1 0-11.2 0.32 5.6 5.6 0 1 0 11.2-0.32zM1172.02 483.4a5.6 5.6 0 1 0-11.19 0.32 5.6 5.6 0 1 0 11.19-0.32zM1156.03 483.86a5.6 5.6 0 1 0-11.19 0.33 5.6 5.6 0 1 0 11.19-0.33z" fill="rgba(126, 173, 255, 0.58)"></path><path d="M887.64 437.5a5.6 5.6 0 1 0-9.86 5.32 5.6 5.6 0 1 0 9.86-5.32zM873.56 445.1a5.6 5.6 0 1 0-9.86 5.31 5.6 5.6 0 1 0 9.86-5.31zM859.47 452.69a5.6 5.6 0 1 0-9.85 5.32 5.6 5.6 0 1 0 9.85-5.32zM845.39 460.29a5.6 5.6 0 1 0-9.85 5.32 5.6 5.6 0 1 0 9.85-5.32z" fill="rgba(80, 94, 248, 0.41)"></path><rect width="144.96" height="144.96" clip-path="url(&quot;#SvgjsClipPath1049&quot;)" x="644.44" y="132.71" fill="url(#SvgjsPattern1050)" transform="rotate(111.24, 716.92, 205.19)"></rect><circle r="87.75706186634825" cx="814.69" cy="19" stroke="rgba(126, 173, 255, 0.58)" stroke-width="2.35" stroke-dasharray="4, 4"></circle><rect width="60" height="60" clip-path="url(&quot;#SvgjsClipPath1051&quot;)" x="944.67" y="499.74" fill="url(#SvgjsPattern1052)" transform="rotate(70.55, 974.67, 529.74)"></rect><path d="M304.63 358.44L293.21 352.66 296.34 340.24 284.91 334.46 288.05 322.04 276.62 316.26 279.75 303.85M311.91 355.13L300.49 349.34 303.62 336.93 292.19 331.14 295.33 318.73 283.9 312.95 287.03 300.53" stroke="rgba(126, 173, 255, 0.58)" stroke-width="1.52" stroke-dasharray="3, 2"></path><path d="M515.69 196.06L522.63 206.83 513.65 215.96 520.58 226.72 511.6 235.86 518.54 246.62 509.56 255.75" stroke="rgba(126, 173, 255, 0.58)" stroke-width="1.5" stroke-dasharray="2, 2"></path><circle r="46.666666666666664" cx="1269.35" cy="65.62" fill="rgba(80, 94, 248, 0.41)"></circle><path d="M257.65 320.34a5.6 5.6 0 1 0-5.51-9.76 5.6 5.6 0 1 0 5.51 9.76zM249.78 306.4a5.6 5.6 0 1 0-5.51-9.75 5.6 5.6 0 1 0 5.51 9.75zM241.91 292.47a5.6 5.6 0 1 0-5.51-9.75 5.6 5.6 0 1 0 5.51 9.75zM234.04 278.54a5.6 5.6 0 1 0-5.51-9.75 5.6 5.6 0 1 0 5.51 9.75z" stroke="rgba(80, 94, 248, 0.41)" stroke-width="1.93"></path><rect width="120" height="120" clip-path="url(&quot;#SvgjsClipPath1053&quot;)" x="567.88" y="189.69" fill="url(#SvgjsPattern1054)" transform="rotate(44.25, 627.88, 249.69)"></rect><rect width="60" height="60" clip-path="url(&quot;#SvgjsClipPath1055&quot;)" x="700.12" y="378.02" fill="url(#SvgjsPattern1056)" transform="rotate(329.16, 730.12, 408.02)"></rect><rect width="96" height="96" clip-path="url(&quot;#SvgjsClipPath1057&quot;)" x="569.51" y="0.3" fill="url(#SvgjsPattern1058)" transform="rotate(104.96, 617.51, 48.3)"></rect></g><defs><mask id="SvgjsMask1048"><rect width="1440" height="560" fill="#ffffff"></rect></mask><pattern x="0" y="0" width="144.96" height="9.06" patternUnits="userSpaceOnUse" id="SvgjsPattern1050"><rect width="144.96" height="4.53" x="0" y="0" fill="rgba(80, 94, 248, 0.41)"></rect><rect width="144.96" height="4.53" x="0" y="4.53" fill="rgba(0, 0, 0, 0)"></rect></pattern><clipPath id="SvgjsClipPath1049"><circle r="36.24" cx="716.92" cy="205.19"></circle></clipPath><pattern x="0" y="0" width="6" height="6" patternUnits="userSpaceOnUse" id="SvgjsPattern1052"><path d="M3 1L3 5M1 3L5 3" stroke="rgba(80, 94, 248, 0.41)" fill="none" stroke-width="1"></path></pattern><clipPath id="SvgjsClipPath1051"><circle r="15" cx="974.67" cy="529.74"></circle></clipPath><pattern x="0" y="0" width="6" height="6" patternUnits="userSpaceOnUse" id="SvgjsPattern1054"><path d="M3 1L3 5M1 3L5 3" stroke="rgba(126, 173, 255, 0.58)" fill="none" stroke-width="1.7"></path></pattern><clipPath id="SvgjsClipPath1053"><circle r="30" cx="627.88" cy="249.69"></circle></clipPath><pattern x="0" y="0" width="6" height="6" patternUnits="userSpaceOnUse" id="SvgjsPattern1056"><path d="M3 1L3 5M1 3L5 3" stroke="rgba(126, 173, 255, 0.58)" fill="none" stroke-width="1"></path></pattern><clipPath id="SvgjsClipPath1055"><circle r="15" cx="730.12" cy="408.02"></circle></clipPath><pattern x="0" y="0" width="6" height="6" patternUnits="userSpaceOnUse" id="SvgjsPattern1058"><path d="M0 6L3 0L6 6" stroke="rgba(80, 94, 248, 0.41)" fill="none"></path></pattern><clipPath id="SvgjsClipPath1057"><circle r="24" cx="617.51" cy="48.3"></circle></clipPath></defs></svg>