<svg xmlns="http://www.w3.org/2000/svg" version="1.1" xmlns:xlink="http://www.w3.org/1999/xlink" xmlns:svgjs="http://svgjs.com/svgjs" width="1366" height="768" preserveAspectRatio="none" viewBox="0 0 1366 768"><g mask="url(&quot;#SvgjsMask1042&quot;)" fill="none"><rect width="1366" height="768" x="0" y="0" fill="rgba(229, 7, 7, 1)"></rect><path d="M0,378.451C77.211,384.974,161.489,394.596,226.207,351.985C290.766,309.478,304.669,224.053,339.388,154.993C375.666,82.832,426.344,17.865,434.573,-62.482C444.242,-156.89,444.929,-260.525,389.861,-337.816C333.444,-417.001,233.905,-451.664,139.821,-476.186C47.789,-500.173,-50.686,-509.284,-139.72,-475.843C-225.805,-443.509,-281.837,-365.877,-341.089,-295.555C-399.543,-226.18,-465.542,-158.504,-482.237,-69.335C-499.249,21.529,-487.772,123.141,-433.491,197.969C-381.767,269.273,-284.23,281.872,-202.908,315.73C-136.202,343.503,-72,372.368,0,378.451" fill="#cc0606"></path><path d="M1366 1373.288C1477.494 1384.271 1563.8609999999999 1282.819 1661.137 1227.241 1764.5149999999999 1168.1770000000001 1914.6190000000001 1148.97 1954.786 1036.8890000000001 1995.443 923.441 1870.99 817.103 1850.693 698.312 1831.1970000000001 584.21 1912.269 447.767 1838.837 358.284 1765.711 269.175 1622.1480000000001 302.638 1508.795 281.684 1408.518 263.148 1307.809 208.38400000000001 1211.655 242.34799999999996 1116.561 275.938 1072.127 379.984 1008.646 458.351 947.499 533.837 858.3720000000001 596.888 846.371 693.289 834.413 789.346 900.126 874.59 946.233 959.701 989.365 1039.32 1041.504 1109.0059999999999 1106.0059999999999 1172.559 1185.6100000000001 1250.991 1254.786 1362.333 1366 1373.288" fill="#f80e0e"></path></g><defs><mask id="SvgjsMask1042"><rect width="1366" height="768" fill="#ffffff"></rect></mask></defs></svg>